<svg viewBox="-2100 -1470 4200 2940" xmlns="http://www.w3.org/2000/svg" xmlns:xlink="http://www.w3.org/1999/xlink">
<defs>
<path d="m-31.5 0h33a30 30 0 0 0 30 -30v-10a30 30 0 0 0 -30 -30h-33zm13-13h19a19 19 0 0 0 19 -19v-6a19 19 0 0 0 -19 -19h-19z" fill-rule="evenodd" id="D"/>
<path d="m0 0h63v-13h-51v-18h40v-12h-40v-14h48v-13h-60z" id="E" transform="translate(-31.5)"/>
<path d="m-26.25 0h52.5v-12h-40.5v-16h33v-12h-33v-11h39.25v-12h-51.25z" id="e"/>
<g id="G">
<clipPath id="gcut">
<path d="m-31.5 0v-70h63v70zm31.5-47v12h31.5v-12z"/>
</clipPath>
<use clip-path="url(#gcut)" xlink:href="#O"/>
<rect height="10" width="26.5" x="5" y="-35"/>
<rect height="35" width="10" x="21.5" y="-35"/>
</g>
<path d="m-31.5 0h12v-48l14 48h11l14-48v48h12v-70h-17.5l-14 48-14-48h-17.5z" id="M"/>
<path d="m0 0a31.5 35 0 0 0 0 -70 31.5 35 0 0 0 0 70m0-13a18.5 22 0 0 0 0 -44 18.5 22 0 0 0 0 44" fill-rule="evenodd" id="O"/>
<path d="m-31.5 0h13v-26h28a22 22 0 0 0 0 -44h-40zm13-39h27a9 9 0 0 0 0 -18h-27z" fill-rule="evenodd" id="P"/>
<g id="R">
<use xlink:href="#P"/>
<path d="m28 0c0-10 0-32-15-32h-19c22 0 22 22 22 32"/>
</g>
<path d="m-15.75-22c0 7 6.75 10.5 16.75 10.5s14.74-3.25 14.75-7.75c0-14.25-46.75-5.25-46.5-30.25 0.25-21.5 24.75-20.5 33.75-20.5s26 4 25.75 21.25h-15.25c0-7.5-7-10.25-15-10.25-7.75 0-13.25 1.25-13.25 8.5-0.25 11.75 46.25 4 46.25 28.75 0 18.25-18 21.75-31.5 21.75-11.5 0-31.55-4.5-31.5-22z" id="S"/>
<g fill="#fff" id="star">
<g id="c">
<path d="m0-1v1h0.5" id="t" transform="rotate(18 0,-1)"/>
<use transform="scale(-1,1)" xlink:href="#t"/>
</g>
<use transform="rotate(72)" xlink:href="#c"/>
<use transform="rotate(-72)" xlink:href="#c"/>
<use transform="rotate(144)" xlink:href="#c"/>
<use transform="rotate(216)" xlink:href="#c"/>
</g>
<use id="star1" transform="scale(31.5)" xlink:href="#star"/>
<use id="star2" transform="scale(26.25)" xlink:href="#star"/>
<use id="star3" transform="scale(21)" xlink:href="#star"/>
<use id="star4" transform="scale(15)" xlink:href="#star"/>
<use id="star5" transform="scale(10.5)" xlink:href="#star"/>
</defs>
<rect fill="#009b3a" height="100%" width="100%" x="-50%" y="-50%"/>
<path d="m-1743 0 1743 1113 1743-1113-1743-1113z" fill="#fedf00"/>
<circle fill="#002776" r="735"/>
<clipPath id="band">
<circle r="735"/>
</clipPath>
<path clip-path="url(#band)" d="m-2205 1470a1785 1785 0 0 1 3570 0h-105a1680 1680 0 1 0 -3360 0z" fill="#fff"/>
<g fill="#009b3a" transform="translate(-420,1470)">
<use transform="rotate(-7)" xlink:href="#O" y="-1697.5"/>
<use transform="rotate(-4)" xlink:href="#R" y="-1697.5"/>
<use transform="rotate(-1)" xlink:href="#D" y="-1697.5"/>
<use transform="rotate(2)" xlink:href="#E" y="-1697.5"/>
<use transform="rotate(5)" xlink:href="#M" y="-1697.5"/>
<use transform="rotate(9.75)" xlink:href="#e" y="-1697.5"/>
<use transform="rotate(14.5)" xlink:href="#P" y="-1697.5"/>
<use transform="rotate(17.5)" xlink:href="#R" y="-1697.5"/>
<use transform="rotate(20.5)" xlink:href="#O" y="-1697.5"/>
<use transform="rotate(23.5)" xlink:href="#G" y="-1697.5"/>
<use transform="rotate(26.5)" xlink:href="#R" y="-1697.5"/>
<use transform="rotate(29.5)" xlink:href="#E" y="-1697.5"/>
<use transform="rotate(32.5)" xlink:href="#S" y="-1697.5"/>
<use transform="rotate(35.5)" xlink:href="#S" y="-1697.5"/>
<use transform="rotate(38.5)" xlink:href="#O" y="-1697.5"/>
</g>
<use id="&#x3B1;CMi" x="-600" xlink:href="#star1" y="-132"/>
<use id="&#x3B1;CMa" x="-535" xlink:href="#star1" y="177"/>
<use id="&#x3B2;CMa" x="-625" xlink:href="#star2" y="243"/>
<use id="&#x3B3;CMa" x="-463" xlink:href="#star4" y="132"/>
<use id="&#x3B4;CMa" x="-382" xlink:href="#star2" y="250"/>
<use id="&#x3B5;CMa" x="-404" xlink:href="#star3" y="323"/>
<use id="&#x3B1;Vir" x="228" xlink:href="#star1" y="-228"/>
<use id="&#x3B1;Sco" x="515" xlink:href="#star1" y="258"/>
<use id="&#x3B2;Sco" x="617" xlink:href="#star3" y="265"/>
<use id="&#x3B5;Sco" x="545" xlink:href="#star2" y="323"/>
<use id="&#x3B8;Sco" x="368" xlink:href="#star2" y="477"/>
<use id="&#x3B9;Sco" x="367" xlink:href="#star3" y="551"/>
<use id="&#x3BA;Sco" x="441" xlink:href="#star3" y="419"/>
<use id="&#x3BB;Sco" x="500" xlink:href="#star2" y="382"/>
<use id="&#x3BC;Sco" x="365" xlink:href="#star3" y="405"/>
<use id="&#x3B1;Hya" x="-280" xlink:href="#star2" y="30"/>
<use id="&#x3B3;Hya" x="200" xlink:href="#star3" y="-37"/>
<use id="&#x3B1;Cru" xlink:href="#star1" y="330"/>
<use id="&#x3B2;Cru" x="85" xlink:href="#star2" y="184"/>
<use id="&#x3B3;Cru" xlink:href="#star2" y="118"/>
<use id="&#x3B4;Cru" x="-74" xlink:href="#star3" y="184"/>
<use id="&#x3B5;Cru" x="-37" xlink:href="#star4" y="235"/>
<use id="&#x3B1;TrA" x="220" xlink:href="#star2" y="495"/>
<use id="&#x3B2;TrA" x="283" xlink:href="#star3" y="430"/>
<use id="&#x3B3;TrA" x="162" xlink:href="#star3" y="412"/>
<use id="&#x3B1;Car" x="-295" xlink:href="#star1" y="390"/>
<use id="&#x3C3;Oct" xlink:href="#star5" y="575"/>
</svg>
