<svg viewBox="0 0 9600 4800" xmlns="http://www.w3.org/2000/svg" xmlns:xlink="http://www.w3.org/1999/xlink"><defs><clipPath id="a"><path d="M0 0h12v6H0z"/></clipPath><clipPath id="b"><path d="M0 0v1.5h8V4zm6 0H3v4h-5z"/></clipPath></defs><g clip-path="url(#a)" fill="#012169" stroke-width=".6" transform="scale(800)"><path d="M0 0h12v6H0z"/><path d="M0 0l6 3M0 3l6-3" stroke="#fff"/><path clip-path="url(#b)" d="M0 0l6 3M0 3l6-3" stroke="#c8102e" stroke-width=".4"/><path d="M3 0v4M0 1.5h7" stroke="#fff" stroke-width="1"/><path d="M3 0v4M0 1.5h7" stroke="#c8102e"/><path d="M0 3h6V0h6v6H0z"/></g><g transform="translate(7200 2400)"><g id="d"><path d="M0-1992l81 249h261l-211 153 81 249L0-1494l-212 153 81-249-211-153h261z" fill="#fff" id="c"/><use transform="rotate(24)" xlink:href="#c"/><use transform="rotate(48)" xlink:href="#c"/></g><use transform="rotate(72)" xlink:href="#d"/><use transform="rotate(144)" xlink:href="#d"/><use transform="rotate(216)" xlink:href="#d"/><use transform="rotate(288)" xlink:href="#d"/></g></svg>
